<svg width="130" height="127" viewBox="0 0 130 127" fill="none" xmlns="http://www.w3.org/2000/svg">
<path d="M65 0C56.4641 0 48.0117 1.68325 40.1256 4.95366C32.2394 8.22406 25.0739 13.0176 19.0381 19.0605C6.8482 31.2647 0 47.8171 0 65.0765C0 93.8403 18.655 118.244 44.46 126.899C47.71 127.42 48.75 125.402 48.75 123.645V112.647C30.745 116.552 26.91 103.927 26.91 103.927C23.92 96.3783 19.695 94.3609 19.695 94.3609C13.78 90.3262 20.15 90.4564 20.15 90.4564C26.65 90.9119 30.095 97.1592 30.095 97.1592C35.75 107.051 45.305 104.122 49.01 102.561C49.595 98.3306 51.285 95.4672 53.105 93.8403C38.675 92.2134 23.53 86.6168 23.53 61.8227C23.53 54.5992 26 48.8074 30.225 44.187C29.575 42.56 27.3 35.7921 30.875 27.0068C30.875 27.0068 36.335 25.2497 48.75 33.6446C53.885 32.2129 59.475 31.497 65 31.497C70.525 31.497 76.115 32.2129 81.25 33.6446C93.665 25.2497 99.125 27.0068 99.125 27.0068C102.7 35.7921 100.425 42.56 99.775 44.187C104 48.8074 106.47 54.5992 106.47 61.8227C106.47 86.6819 91.26 92.1483 76.765 93.7753C79.105 95.7926 81.25 99.7623 81.25 105.814V123.645C81.25 125.402 82.29 127.485 85.605 126.899C111.41 118.179 130 93.8403 130 65.0765C130 56.5305 128.319 48.0683 125.052 40.1728C121.786 32.2774 116.998 25.1034 110.962 19.0605C104.926 13.0176 97.7606 8.22406 89.8744 4.95366C81.9883 1.68325 73.5359 0 65 0Z" fill="black"/>
</svg>
