<svg width="124" height="124" viewBox="0 0 124 124" fill="none" xmlns="http://www.w3.org/2000/svg">
<path d="M35.96 0H88.04C107.88 0 124 16.12 124 35.96V88.04C124 97.5772 120.211 106.724 113.468 113.468C106.724 120.211 97.5772 124 88.04 124H35.96C16.12 124 0 107.88 0 88.04V35.96C0 26.4228 3.78863 17.2762 10.5324 10.5324C17.2762 3.78863 26.4228 0 35.96 0ZM34.72 12.4C28.8004 12.4 23.1232 14.7516 18.9374 18.9374C14.7516 23.1232 12.4 28.8004 12.4 34.72V89.28C12.4 101.618 22.382 111.6 34.72 111.6H89.28C95.1996 111.6 100.877 109.248 105.063 105.063C109.248 100.877 111.6 95.1996 111.6 89.28V34.72C111.6 22.382 101.618 12.4 89.28 12.4H34.72ZM94.55 21.7C96.6054 21.7 98.5767 22.5165 100.03 23.9699C101.483 25.4233 102.3 27.3946 102.3 29.45C102.3 31.5054 101.483 33.4767 100.03 34.9301C98.5767 36.3835 96.6054 37.2 94.55 37.2C92.4946 37.2 90.5233 36.3835 89.0699 34.9301C87.6165 33.4767 86.8 31.5054 86.8 29.45C86.8 27.3946 87.6165 25.4233 89.0699 23.9699C90.5233 22.5165 92.4946 21.7 94.55 21.7ZM62 31C70.2217 31 78.1067 34.2661 83.9203 40.0797C89.7339 45.8933 93 53.7783 93 62C93 70.2217 89.7339 78.1067 83.9203 83.9203C78.1067 89.7339 70.2217 93 62 93C53.7783 93 45.8933 89.7339 40.0797 83.9203C34.2661 78.1067 31 70.2217 31 62C31 53.7783 34.2661 45.8933 40.0797 40.0797C45.8933 34.2661 53.7783 31 62 31ZM62 43.4C57.067 43.4 52.336 45.3596 48.8478 48.8478C45.3596 52.336 43.4 57.067 43.4 62C43.4 66.933 45.3596 71.664 48.8478 75.1522C52.336 78.6404 57.067 80.6 62 80.6C66.933 80.6 71.664 78.6404 75.1522 75.1522C78.6404 71.664 80.6 66.933 80.6 62C80.6 57.067 78.6404 52.336 75.1522 48.8478C71.664 45.3596 66.933 43.4 62 43.4Z" fill="black"/>
</svg>
