<svg width="157" height="127" viewBox="0 0 157 127" fill="none" xmlns="http://www.w3.org/2000/svg">
<path d="M157 15.034C151.121 17.6264 144.885 19.328 138.5 20.0823C145.151 16.1144 150.258 9.83117 152.662 2.34471C146.34 6.0793 139.422 8.71056 132.209 10.1248C126.333 3.89401 117.962 0 108.697 0C90.9085 0 76.486 14.3552 76.486 32.0604C76.486 34.5736 76.7712 37.0202 77.32 39.3674C50.5503 38.0299 26.8163 25.2662 10.9293 5.86879C8.15725 10.604 6.56886 16.112 6.56886 21.9869C6.56886 33.1104 12.2558 42.9232 20.8982 48.673C15.7831 48.5135 10.7806 47.1384 6.30821 44.6624C6.30637 44.7967 6.30637 44.931 6.30637 45.0659C6.30637 60.5998 17.4092 73.5583 32.1439 76.5036C27.4007 77.7876 22.4254 77.9756 17.5981 77.053C21.6967 89.7905 33.5925 99.0595 47.6869 99.3189C36.6632 107.918 22.7742 113.043 7.6838 113.043C5.08349 113.043 2.51997 112.891 0 112.595C14.2545 121.692 31.1854 127 49.3753 127C108.623 127 141.02 78.1457 141.02 35.7786C141.02 34.388 140.99 33.0054 140.927 31.6307C147.233 27.0932 152.676 21.473 157 15.034Z" fill="black"/>
</svg>
