<svg width="125" height="125" viewBox="0 0 125 125" fill="none" xmlns="http://www.w3.org/2000/svg">
<path d="M0 8.95313C0 4.00781 4.10937 0 9.17969 0H115.82C120.891 0 125 4.00781 125 8.95313V116.047C125 120.992 120.891 125 115.82 125H9.17969C4.10937 125 0 120.992 0 116.047V8.95313ZM38.6172 104.641V48.1953H19.8594V104.641H38.6172ZM29.2422 40.4844C35.7813 40.4844 39.8516 36.1563 39.8516 30.7344C39.7344 25.1953 35.7891 20.9844 29.3672 20.9844C22.9453 20.9844 18.75 25.2031 18.75 30.7344C18.75 36.1563 22.8203 40.4844 29.1172 40.4844H29.2422ZM67.5859 104.641V73.1172C67.5859 71.4297 67.7109 69.7422 68.2109 68.5391C69.5625 65.1719 72.6484 61.6797 77.8359 61.6797C84.625 61.6797 87.3359 66.8516 87.3359 74.4453V104.641H106.094V72.2656C106.094 54.9219 96.8438 46.8594 84.5 46.8594C74.5469 46.8594 70.0859 52.3281 67.5859 56.1797V56.375H67.4609C67.5024 56.3098 67.5441 56.2447 67.5859 56.1797V48.1953H48.8359C49.0703 53.4922 48.8359 104.641 48.8359 104.641H67.5859Z" fill="black"/>
</svg>
