<svg width="92" height="55" viewBox="0 0 92 55" fill="none" xmlns="http://www.w3.org/2000/svg">
<path d="M46 0C33.7331 0 26.0691 6.10904 23 18.3321C27.5986 12.2224 32.9669 9.93131 39.0986 11.4589C42.5996 12.3284 45.1016 14.8579 47.8723 17.6611C52.3818 22.221 57.6013 27.5 69 27.5C81.2662 27.5 88.9309 21.3902 92 9.16428C87.4007 15.2776 82.0331 17.5687 75.9007 16.0411C72.4004 15.1709 69.9013 12.6421 67.1269 9.83892C62.6204 5.27899 57.4022 0 46 0ZM23 27.5C10.7338 27.5 3.06906 33.6098 0 45.8357C4.59856 39.7224 9.96619 37.4313 16.0986 38.9589C19.5996 39.8291 22.1016 42.3579 24.8723 45.1611C29.3818 49.721 34.6013 55 46 55C58.2662 55 65.9309 48.891 69 36.6679C64.4007 42.7776 59.0331 45.0687 52.9007 43.5411C49.4004 42.6716 46.9013 40.1421 44.1269 37.3389C39.6204 32.779 34.4022 27.5 23 27.5Z" fill="#38BDF8"/>
</svg>
