<svg width="681" height="589" viewBox="0 0 681 589" fill="none" xmlns="http://www.w3.org/2000/svg">
<path d="M287.387 454.357L353.009 291.862C384.258 290.145 434.961 297.175 466.366 304.753L398.868 471.935C368.245 464.358 318.01 455.138 287.387 454.357Z" fill="#3D87CF"/>
<path d="M582.378 370.16L514.176 538.123C491.365 519.373 428.867 483.748 398.868 471.953L466.366 304.77C496.911 315.629 562.144 348.364 582.378 370.16Z" fill="#FAC705"/>
<path d="M649.175 214.565L582.224 370.184C560.348 350.185 497.07 316.046 466.211 304.796L533.865 137.301C564.724 147.614 629.098 191.675 649.175 214.565Z" fill="#66C557"/>
<path d="M352.985 291.963L419.545 127.514C450.716 126.42 502.667 131.342 533.994 137.358L466.34 304.853C435.325 296.337 384 291.338 352.985 291.963Z" fill="#F3632E"/>
<path d="M127.593 352.36L95.4839 351.814C97.6712 345.33 100.484 338.065 103.218 331.971L135.639 331.891C133.295 338.532 130.483 345.721 127.593 352.36Z" fill="#3D87CF"/>
<path d="M177.191 379.16L136.724 378.926L148.052 351.427C161.411 351.347 174.927 351.426 188.363 351.894L177.191 379.16Z" fill="#3D87CF"/>
<path d="M244.389 372.36C239.702 383.14 235.717 394.703 230.874 405.563L185.329 405.017L198.766 372.05L244.389 372.36Z" fill="#3D87CF"/>
<path d="M84.3939 319.362L61.0347 319.202C62.9086 313.811 65.2534 307.796 67.6751 302.405C75.6436 302.325 83.6121 301.859 91.5803 302.171L84.3939 319.362Z" fill="#3D87CF"/>
<path d="M42.1942 285.162C36.1788 285.322 30.0852 285.944 24.0698 285.786L29.929 271.568C35.9444 271.256 41.9599 270.944 47.9753 270.944L42.1942 285.162Z" fill="#3D87CF"/>
<path d="M148.791 299.562L116.604 299.172L124.338 279.408C135.275 279.72 146.213 279.096 157.071 279.488L148.791 299.562Z" fill="#3D87CF"/>
<path d="M198.19 326.761L158.035 326.601L168.894 299.258C182.41 299.178 195.925 299.098 209.441 299.418L198.19 326.761Z" fill="#3D87CF"/>
<path d="M252.389 352.561L206.686 351.545L219.967 319.124L265.514 319.592L252.389 352.561Z" fill="#3D87CF"/>
<path d="M106.593 264.763C98.7802 264.529 90.7336 265.153 82.8433 264.683L90.0302 246.949L113.312 247.573C111.594 253.12 109.171 259.216 106.593 264.763Z" fill="#3D87CF"/>
<path d="M64.1943 230.765L46.1479 231.155L51.6946 217.015C57.5539 216.469 63.8817 216.468 69.9753 216.468L64.1943 230.765Z" fill="#3D87CF"/>
<path d="M192.591 191.166L160.326 190.932L168.216 170.776C179.075 170.936 189.933 170.776 200.871 171.01L192.591 191.166Z" fill="#F3632E"/>
<path d="M201.989 218.365L212.849 190.71H253.081L242.222 218.365H201.989Z" fill="#F3632E"/>
<path d="M296.787 242.364L251.084 242.052L264.287 209.163L309.909 209.323L296.787 242.364Z" fill="#F3632E"/>
<path d="M150.591 155.968C142.935 156.357 134.889 155.967 127.076 156.127L133.638 138.628C141.294 138.004 149.419 138.94 157.154 138.708L150.591 155.968Z" fill="#F3632E"/>
<path d="M107.993 121.768C101.977 121.928 95.9618 122.55 89.8682 122.314L95.8058 108.095L113.696 107.235L107.993 121.768Z" fill="#F3632E"/>
<path d="M214.389 137.167C203.609 137.167 192.828 137.007 182.046 136.543L190.015 116.778C200.874 116.938 211.732 116.545 222.592 116.858L214.389 137.167Z" fill="#F3632E"/>
<path d="M263.788 164.367C250.351 164.367 236.835 164.601 223.321 164.207L234.571 136.708C248.086 136.548 261.524 136.788 275.038 136.868L263.788 164.367Z" fill="#F3632E"/>
<path d="M317.586 190.566L272.198 190.098L285.4 157.051L331.103 157.363L317.586 190.566Z" fill="#F3632E"/>
<path d="M172.19 101.969H148.597L155.55 84.2349C163.519 84.6249 171.331 84.2347 179.221 84.7027L172.19 101.969Z" fill="#F3632E"/>
<path d="M129.992 67.5694L111.868 68.3512L117.492 54.0551C123.508 53.3511 129.602 53.6649 135.617 53.2729L129.992 67.5694Z" fill="#F3632E"/>
<path d="M107.193 407.559C94.4588 407.719 81.6476 407.639 68.834 407.247L77.9743 384.591C90.7865 384.591 103.677 384.981 116.645 384.825L107.193 407.559Z" fill="black"/>
<path d="M400.584 156.367L343.164 156.757L363.319 106.68C382.849 104.493 402.535 102.383 422.145 103.008L400.584 156.367Z" fill="black"/>
<path d="M152.591 16.1714L130.796 16.6395L137.124 0.46782C144.467 0.307825 151.811 0 159.155 0L152.591 16.1714Z" fill="black"/>
<path d="M195.99 48.1703C186.302 47.8584 176.615 47.9363 166.851 47.5463L174.507 28.7969C184.272 29.1089 194.037 28.637 203.802 29.265L195.99 48.1703Z" fill="black"/>
<path d="M342.185 138.768L287.891 138.534L303.672 99.0811L358.046 99.5492L342.185 138.768Z" fill="black"/>
<path d="M240.389 111.168L252.185 81.3247L300.074 81.405L288.043 111.482L240.389 111.168Z" fill="black"/>
<path d="M237.989 83.7687L199.552 83.4568L208.458 60.9575C221.27 60.9575 234.162 60.4895 247.129 60.9575L237.989 83.7687Z" fill="black"/>
<path d="M379.584 208.566C360.444 209.033 341.225 209.347 322.008 209.425L340.757 163.099L398.021 162.865L379.584 208.566Z" fill="black"/>
<path d="M357.985 261.763L300.565 262.545L300.253 262.385L318.846 216.059L376.734 215.199L357.985 261.763Z" fill="black"/>
<path d="M65.7935 177.767L72.1217 161.752L94.231 160.97L87.7468 177.453L65.7935 177.767Z" fill="black"/>
<path d="M279.187 315.162L297.702 268.992L355.2 268.288L336.841 314.536L279.187 315.162Z" fill="black"/>
<path d="M130.192 210.965L101.053 210.575L108.709 191.826C118.474 192.138 128.161 191.666 137.926 192.294L130.192 210.965Z" fill="black"/>
<path d="M276.588 300.962L222.293 300.572L237.918 261.355L292.368 261.824L276.588 300.962Z" fill="black"/>
<path d="M222.389 274.163L174.969 274.003L174.579 273.843L186.688 244.078L234.498 244.158L222.389 274.163Z" fill="black"/>
<path d="M172.191 246.763L133.832 246.373L142.66 223.874C155.628 223.714 168.675 223.794 181.643 224.034L172.191 246.763Z" fill="black"/>
<path d="M315.186 368.16L314.952 368.706L257.454 369.41L276.282 321.989L334.092 321.366L315.186 368.16Z" fill="black"/>
<path d="M293.587 421.559L235.933 422.965L235.543 422.805L254.683 375.852L312.103 375.306L293.587 421.559Z" fill="black"/>
<path d="M21.7953 340.361C14.5299 340.127 7.26457 340.829 0 340.361L6.32792 324.893C13.7495 324.269 21.1713 324.425 28.6713 324.111L21.7953 340.361Z" fill="black"/>
<path d="M270.587 478.357C251.369 477.889 232.228 477.733 212.933 479.295L233.01 429.452L290.898 428.437L270.587 478.357Z" fill="black"/>
<path d="M64.5937 373.961L35.2188 374.121L42.4841 355.449C52.4058 355.449 62.1711 355.138 72.0932 355.369L64.5937 373.961Z" fill="black"/>
<path d="M211.39 462.357L157.33 461.576L173.188 422.438L227.249 422.983L211.39 462.357Z" fill="black"/>
<path d="M109.793 434.958L121.901 404.803L169.478 405.115L157.369 435.348L109.793 434.958Z" fill="black"/>
<path fill-rule="evenodd" clip-rule="evenodd" d="M619.376 223.165C599.299 200.276 571.41 184.026 540.551 173.791L492.27 293.241C523.052 304.568 550.237 320.116 572.112 340.035L619.376 223.165ZM556.722 379.02C536.489 357.225 507.506 341.755 477.037 330.898L427.977 452.926C457.898 464.722 485.943 478.707 508.756 497.456L556.722 379.02ZM680.78 209.26L527.425 588.787C487.661 534.571 418.523 500.352 349.071 487.385C325.166 483.01 301.183 479.729 277.277 478.791L297.355 429.417C327.978 430.277 358.681 433.87 389.306 441.526L438.836 318.796C407.431 311.218 376.104 310.28 344.855 311.999L360.948 271.688C391.885 271.064 422.901 273.016 453.914 281.531L501.724 163.331C470.397 157.238 439.07 155.05 407.899 156.144L429.304 102.708C500.396 102.396 582.659 122.238 640.938 169.423C655.703 181.142 669.297 194.104 680.78 209.26Z" fill="black"/>
</svg>
