<svg width="50" height="74" viewBox="0 0 50 74" fill="none" xmlns="http://www.w3.org/2000/svg">
<path d="M12.3332 73.9995C19.1412 73.9995 24.6664 68.4742 24.6664 61.6662V49.333H12.3332C5.52528 49.333 0 54.8583 0 61.6662C0 68.4742 5.52528 73.9995 12.3332 73.9995Z" fill="#0ACF83"/>
<path d="M0 36.9992C0 30.1913 5.52528 24.666 12.3332 24.666H24.6664V49.3325H12.3332C5.52528 49.3325 0 43.8072 0 36.9992Z" fill="#A259FF"/>
<path d="M0 12.3332C0 5.52528 5.52528 0 12.3332 0H24.6664V24.6664H12.3332C5.52528 24.6664 0 19.1412 0 12.3332Z" fill="#F24E1E"/>
<path d="M24.667 0H37.0002C43.8082 0 49.3334 5.52528 49.3334 12.3332C49.3334 19.1412 43.8082 24.6664 37.0002 24.6664H24.667V0Z" fill="#FF7262"/>
<path d="M49.3334 36.9992C49.3334 43.8072 43.8082 49.3325 37.0002 49.3325C30.1923 49.3325 24.667 43.8072 24.667 36.9992C24.667 30.1913 30.1923 24.666 37.0002 24.666C43.8082 24.666 49.3334 30.1913 49.3334 36.9992Z" fill="#1ABCFE"/>
</svg>
