<svg width="69" height="77" viewBox="0 0 69 77" fill="none" xmlns="http://www.w3.org/2000/svg">
<path d="M7.04332 68.4861L0.9375 0H68.0323L61.9204 68.4758L34.4442 76.0932L7.04332 68.4861Z" fill="#1572B6"/>
<path d="M34.4854 70.271L56.6877 64.1154L61.9111 5.59937H34.4854V70.271Z" fill="#33A9DC"/>
<path d="M34.4854 30.412H45.6002L46.3678 21.8107H34.4854V13.4111H55.5478L55.3462 15.6648L53.2814 38.8116H34.4854V30.412Z" fill="white"/>
<path d="M34.5353 52.2262L34.4983 52.2371L25.144 49.7114L24.5458 43.0122H16.1152L17.2916 56.201L34.4971 60.9762L34.5353 60.9653V52.2262Z" fill="#EBEBEB"/>
<path d="M44.8868 38.4563L43.8751 49.7048L34.5068 52.2336V60.9726L51.7263 56.2005L51.8526 54.7812L53.3138 38.4563H44.8868Z" fill="white"/>
<path d="M34.5142 13.4111V21.8107H14.2255L14.0573 19.9232L13.6746 15.6648L13.4736 13.4111H34.5142ZM34.4857 30.4132V38.8128H25.2492L25.081 36.9253L24.6978 32.6669L24.4974 30.4132H34.4857Z" fill="#EBEBEB"/>
</svg>
