<svg width="77" height="77" viewBox="0 0 77 77" fill="none" xmlns="http://www.w3.org/2000/svg">
<path d="M0 0H76.0274V76.0274H0V0Z" fill="#F5DE19"/>
<path d="M51.0711 59.3963C51.7188 60.7121 52.7253 61.8181 53.9743 62.5868C55.2234 63.3554 56.6642 63.7554 58.1307 63.7407C61.0904 63.7407 62.9829 62.2609 62.9829 60.2109C62.9829 57.7672 61.0388 56.8929 57.7805 55.4673L55.9938 54.7016C50.8348 52.505 47.4136 49.7544 47.4136 43.9383C47.4136 38.5811 51.4865 34.5001 57.8755 34.5001C59.9437 34.3507 62.0102 34.8136 63.817 35.831C65.6239 36.8484 67.0912 38.3753 68.036 40.2211L62.4507 43.7917C62.0869 42.8765 61.4535 42.0934 60.6345 41.5464C59.8154 40.9994 58.8495 40.7143 57.8647 40.7289C57.435 40.6859 57.0011 40.7328 56.5906 40.8668C56.1801 41.0007 55.802 41.2187 55.4804 41.5069C55.1587 41.795 54.9007 42.147 54.7226 42.5404C54.5446 42.9338 54.4504 43.3599 54.4461 43.7917C54.4461 45.9341 55.7739 46.8029 58.8394 48.1361L60.6261 48.9018C66.6974 51.5058 70.1295 54.1586 70.1295 60.124C70.1295 66.5565 65.0764 70.0809 58.291 70.0809C55.6471 70.2493 53.011 69.6491 50.7007 68.3526C48.3905 67.056 46.5048 65.1186 45.2713 62.7741L51.0711 59.3963ZM25.8327 60.0154C26.9541 62.0057 27.975 63.6892 30.4296 63.6892C32.7756 63.6892 34.2582 62.7714 34.2582 59.2008V34.9074H41.402V59.2959C41.402 66.6922 37.0576 70.0592 30.7337 70.0592C28.4984 70.1814 26.2784 69.6243 24.3656 68.4612C22.4528 67.2981 20.9367 65.5834 20.0166 63.5425L25.8327 60.0154Z" fill="black"/>
</svg>
