<svg width="76" height="76" viewBox="0 0 76 76" fill="none" xmlns="http://www.w3.org/2000/svg">
<path d="M60.0069 36.3517C60.0069 32.3237 58.5582 29.5354 57.3184 27.3647L56.9384 26.7472C55.4327 24.3247 54.1169 22.1967 54.1169 19.7172C54.1169 16.7247 56.3874 13.9317 59.5889 13.9317C59.6839 13.9317 59.7742 13.9412 59.8644 13.9459L60.0117 13.9602C54.0085 8.44607 46.1514 5.39075 38.0002 5.40066C32.5978 5.39788 27.2797 6.73931 22.525 9.30407C17.7703 11.8688 13.7284 15.5763 10.7637 20.0924C11.5237 20.1162 12.2504 20.1352 12.8632 20.1352C16.2689 20.1352 21.5462 19.7219 21.5462 19.7219C23.3037 19.6174 23.5127 22.1967 21.7552 22.4057C21.7552 22.4057 19.9929 22.6147 18.0264 22.7144L29.9014 58.0259L37.0264 36.6224L31.9439 22.7097C30.1912 22.6052 28.5287 22.4009 28.5287 22.4009C26.7712 22.2964 26.9802 19.6079 28.7329 19.7124C28.7329 19.7124 34.1194 20.1257 37.3209 20.1257C40.7314 20.1257 46.0134 19.7124 46.0134 19.7124C47.7709 19.6079 47.9752 22.1919 46.2177 22.4009C46.2177 22.4009 44.4507 22.6052 42.4889 22.7097L54.2689 57.7504L57.5179 46.8872L57.7744 46.0654C59.0569 41.9804 60.0022 38.9642 60.0022 36.3469L60.0069 36.3517ZM5.40091 37.9999C5.40058 44.1214 7.12363 50.1194 10.3729 55.3075C13.6221 60.4955 18.2663 64.664 23.7739 67.3359L8.21766 24.7284C6.35485 28.9046 5.39499 33.4271 5.40091 37.9999Z" fill="#0675C4"/>
<path d="M28.79 69.2692L38.575 40.8499L48.5928 68.3049C48.6593 68.4617 48.7353 68.6089 48.8255 68.7514C42.3676 71.0265 35.3568 71.2077 28.79 69.2692ZM66.6 22.3582C66.7425 23.3984 66.8233 24.5099 66.8233 25.7117C66.8233 29.0177 66.2058 32.7369 64.3438 37.3872L54.3878 66.1722C61.7347 61.9036 67.1236 54.9341 69.4058 46.7495C71.688 38.5648 70.6829 29.8124 66.6048 22.3582H66.6Z" fill="#0675C4"/>
<path fill-rule="evenodd" clip-rule="evenodd" d="M0 38C0 17.0478 17.0478 0 38 0C58.9475 0 76 17.0478 76 38C76 58.9522 58.9475 76 38 76C17.0478 76 0 58.9522 0 38ZM1.74325 38C1.74325 57.9928 18.0072 74.2568 38 74.2568C57.988 74.2568 74.252 57.9928 74.252 38C74.252 18.0025 57.988 1.74325 38 1.74325C18.0025 1.74325 1.74325 18.0025 1.74325 38Z" fill="#0675C4"/>
</svg>
