<svg width="79" height="70" viewBox="0 0 79 70" fill="none" xmlns="http://www.w3.org/2000/svg">
<path d="M64.9537 22.6884C64.113 22.4011 63.2651 22.135 62.4109 21.8903C62.5544 21.3063 62.6865 20.7295 62.8038 20.1628C64.7288 10.8564 63.4703 3.35908 59.1719 0.890594C55.0507 -1.47586 48.3107 0.991706 41.5037 6.89156C40.8328 7.47405 40.1769 8.07333 39.5364 8.68883C39.1077 8.27955 38.6713 7.8782 38.2277 7.48501C31.0936 1.17672 23.9429 -1.48201 19.6491 0.99355C15.5315 3.36738 14.3123 10.4154 16.0453 19.2352C16.2178 20.1087 16.4124 20.9777 16.6292 21.8414C15.617 22.1278 14.6403 22.4327 13.7056 22.7573C5.34145 25.6615 0 30.2128 0 34.9337C0 39.8096 5.73429 44.7001 14.4459 47.6656C15.1522 47.905 15.8643 48.1269 16.5817 48.331C16.3487 49.2611 16.1418 50.1976 15.9614 51.1393C14.3092 59.8061 15.5994 66.6876 19.7059 69.0463C23.9472 71.4823 31.0658 68.9787 37.9971 62.9443C38.5592 62.4537 39.1089 61.9492 39.6457 61.4313C40.3392 62.0977 41.0513 62.7448 41.7811 63.3718C48.4955 69.1256 55.1266 71.4491 59.229 69.0838C63.4663 66.6409 64.8436 59.2483 63.0556 50.2542C62.9147 49.5496 62.7568 48.8485 62.5819 48.1515C63.0818 48.0039 63.5725 47.8521 64.0508 47.6942C73.1074 44.706 79 39.8747 79 34.9337C79 30.1956 73.486 25.6136 64.9537 22.6884ZM62.9895 44.5041C62.5575 44.6464 62.1144 44.7837 61.6626 44.9174C60.6627 41.7651 59.3136 38.4134 57.6623 34.95C59.238 31.5694 60.5353 28.2603 61.5071 25.1286C62.3153 25.3616 63.0994 25.6071 63.8555 25.8662C71.166 28.3728 75.6252 32.0783 75.6252 34.9337C75.6252 37.9751 70.8093 41.9234 62.9895 44.5041ZM59.745 50.907C60.5356 54.8839 60.6482 58.4797 60.1246 61.2908C59.6543 63.8168 58.7081 65.5007 57.5379 66.1753C55.0485 67.6105 49.7243 65.745 43.9823 60.824C43.3035 60.2411 42.6411 59.6395 41.9959 59.02C44.2221 56.5954 46.4468 53.7769 48.618 50.6464C52.4372 50.3089 56.0453 49.757 59.3173 49.0037C59.4749 49.6347 59.6175 50.2693 59.745 50.907ZM26.9328 65.9272C24.5005 66.7825 22.5631 66.8071 21.392 66.1347C18.9001 64.7034 17.8642 59.1779 19.2772 51.7663C19.4452 50.8905 19.6375 50.0195 19.854 49.1543C23.0899 49.8673 26.6718 50.3799 30.4999 50.6891C32.6859 53.7523 34.9748 56.5677 37.2815 59.0332C36.7913 59.5056 36.2895 59.9659 35.7765 60.4137C32.7112 63.082 29.6398 64.9751 26.9328 65.9272ZM15.5377 44.4853C11.6855 43.1739 8.50423 41.4698 6.3237 39.6101C4.36413 37.9391 3.37509 36.2799 3.37509 34.9337C3.37509 32.0688 7.66362 28.4146 14.8165 25.9311C15.6846 25.6299 16.5931 25.3456 17.5358 25.0788C18.5246 28.2812 19.8213 31.6296 21.3862 35.0155C19.8009 38.4515 18.4857 41.8533 17.4874 45.0935C16.8326 44.9067 16.1825 44.7039 15.5377 44.4853ZM19.3575 18.5895C17.8728 11.0332 18.8588 5.33308 21.3402 3.90245C23.983 2.37869 29.8271 4.55122 35.987 9.99837C36.3886 10.3544 36.7838 10.7176 37.1723 11.0879C34.877 13.5425 32.6091 16.3371 30.4425 19.3821C26.727 19.7251 23.1705 20.2759 19.9006 21.0138C19.6991 20.2105 19.518 19.4019 19.3575 18.5895ZM53.4346 26.9699C52.6622 25.6412 51.8612 24.3293 51.0321 23.0351C53.5527 23.3526 55.9678 23.7739 58.2357 24.289C57.5549 26.4624 56.7063 28.7346 55.7073 31.0641C54.9772 29.6844 54.2194 28.3194 53.4346 26.9699ZM39.538 13.49C41.0945 15.1695 42.6535 17.0446 44.1869 19.0791C41.0763 18.9328 37.9605 18.9322 34.8498 19.0773C36.3847 17.0615 37.957 15.1889 39.538 13.49ZM25.5522 26.9929C24.7771 28.3316 24.0335 29.6881 23.322 31.0614C22.3394 28.7401 21.4985 26.4575 20.8119 24.2533C23.0658 23.7512 25.4695 23.3406 27.974 23.0289C27.1357 24.3311 26.3282 25.653 25.5522 26.9929ZM28.0459 47.0777C25.4584 46.79 23.0186 46.4006 20.7653 45.9119C21.4627 43.6684 22.3221 41.3373 23.326 38.9662C24.0403 40.3405 24.787 41.6979 25.5654 43.0372C26.3659 44.414 27.1948 45.7626 28.0459 47.0777ZM39.6312 56.6142C38.0314 54.8956 36.436 52.9941 34.8779 50.9491C36.3906 51.0081 37.9327 51.0382 39.5 51.0382C41.1102 51.0382 42.702 51.0023 44.2687 50.9328C42.7304 53.0147 41.1772 54.9189 39.6312 56.6142ZM55.7391 38.8451C56.7951 41.2423 57.6851 43.5612 58.3918 45.7663C56.1014 46.2869 53.6283 46.7061 51.0226 47.0174C51.8576 45.6991 52.6661 44.3644 53.4478 43.0141C54.2426 41.6416 55.0065 40.2516 55.7391 38.8451ZM50.5245 41.3349C49.3278 43.4052 48.0639 45.4362 46.7347 47.4246C44.3269 47.5945 41.9138 47.6788 39.5 47.6776C37.0414 47.6776 34.6501 47.6013 32.3474 47.4526C30.9835 45.4687 29.6954 43.4342 28.486 41.3533C27.2822 39.2834 26.1581 37.1688 25.1155 35.014C26.1555 32.8586 27.2765 30.743 28.4761 28.6715L28.4758 28.6719C29.675 26.5999 30.9528 24.574 32.3064 22.5987C34.6557 22.4216 37.0649 22.3294 39.4997 22.3294C41.9456 22.3294 44.3582 22.4226 46.7069 22.6008C48.0468 24.5732 49.3165 26.5921 50.5134 28.6537C51.717 30.7206 52.8529 32.8259 53.919 34.9663C52.8638 37.1286 51.7316 39.2528 50.5245 41.3349ZM57.4864 3.80226C60.1317 5.3217 61.1605 11.449 59.4984 19.4842C59.3923 19.9968 59.2731 20.519 59.1435 21.0485C55.8657 20.2949 52.3066 19.7346 48.5804 19.3864C46.4097 16.3079 44.1604 13.509 41.9024 11.086C42.4942 10.5179 43.1 9.96455 43.7194 9.42643C49.5518 4.37174 55.0028 2.37593 57.4864 3.80226ZM39.5 27.9081C43.396 27.9081 46.5545 31.0537 46.5545 34.9337C46.5545 38.8138 43.396 41.9593 39.5 41.9593C35.604 41.9593 32.4455 38.8138 32.4455 34.9337C32.4455 31.0537 35.604 27.9081 39.5 27.9081Z" fill="#00D8FF"/>
</svg>
