<svg width="68" height="77" viewBox="0 0 68 77" fill="none" xmlns="http://www.w3.org/2000/svg">
<path d="M67.17 0L61.0507 68.5523L33.5439 76.178L6.11299 68.5629L0 0H67.17Z" fill="#E44D26"/>
<path d="M33.585 70.3492L55.8118 64.1872L61.0409 5.60596H33.585V70.3492Z" fill="#F16529"/>
<path d="M21.6889 22.4241H33.5847V14.0151H12.499L12.7002 16.2711L14.7671 39.444H33.5847V31.035H22.4575L21.6889 22.4241ZM23.5841 43.6486H15.1428L16.3208 56.8519L33.546 61.6334L33.5847 61.6229V52.874L33.5479 52.8838L24.1829 50.355L23.5841 43.6486Z" fill="#EBEBEB"/>
<path d="M33.5559 39.444H43.9107L42.9343 50.3498L33.5557 52.8811V61.6295L50.7946 56.8519L50.921 55.4312L52.8973 33.293L53.1024 31.035H33.5559V39.444ZM33.5559 22.4036V22.4241H53.8675L54.0361 20.5341L54.4194 16.2711L54.6203 14.0151H33.5559V22.4036Z" fill="white"/>
</svg>
